<?xml version="1.0" encoding="UTF-8" standalone="no"?>
<svg
   xmlns:dc="http://purl.org/dc/elements/1.1/"
   xmlns:cc="http://creativecommons.org/ns#"
   xmlns:rdf="http://www.w3.org/1999/02/22-rdf-syntax-ns#"
   xmlns:svg="http://www.w3.org/2000/svg"
   xmlns="http://www.w3.org/2000/svg"
   xmlns:sodipodi="http://sodipodi.sourceforge.net/DTD/sodipodi-0.dtd"
   xmlns:inkscape="http://www.inkscape.org/namespaces/inkscape"
   width="560"
   height="81.091248"
   viewBox="0 0 560 81.091249"
   version="1.1"
   id="svg1511"
   sodipodi:docname="logo.svg"
   inkscape:version="0.92.5 (2060ec1f9f, 2020-04-08)">
  <metadata
     id="metadata1515">
    <rdf:RDF>
      <cc:Work
         rdf:about="">
        <dc:format>image/svg+xml</dc:format>
        <dc:type
           rdf:resource="http://purl.org/dc/dcmitype/StillImage" />
        <dc:title>Brand/Logo/White</dc:title>
      </cc:Work>
    </rdf:RDF>
  </metadata>
  <sodipodi:namedview
     pagecolor="#ffffff"
     bordercolor="#666666"
     borderopacity="1"
     objecttolerance="10"
     gridtolerance="10"
     guidetolerance="10"
     inkscape:pageopacity="0"
     inkscape:pageshadow="2"
     inkscape:window-width="1891"
     inkscape:window-height="997"
     id="namedview1513"
     showgrid="false"
     inkscape:zoom="0.95320197"
     inkscape:cx="396.24119"
     inkscape:cy="32.139935"
     inkscape:window-x="0"
     inkscape:window-y="27"
     inkscape:window-maximized="0"
     inkscape:current-layer="svg1511" />
  <title
     id="title1497">Brand/Logo/White</title>
  <defs
     id="defs1500">
    <path
       id="a"
       d="M 0,0.755 H 72.76 V 86 H 0 Z"
       inkscape:connector-curvature="0" />
  </defs>
  <path
     inkscape:connector-curvature="0"
     d="m 73.838622,58.82939 6.262134,-38.017932 c 0.213016,-1.290686 -0.329703,-2.58977 -1.392939,-3.334688 -1.063226,-0.74492 -2.455908,-0.801821 -3.575028,-0.145926 L 54.977024,28.989676 43.11233,1.9969394 C 42.574023,0.78190044 41.380714,2.4414063e-6 40.06475,2.4414063e-6 38.748813,2.4414063e-6 37.555513,0.78190044 37.017179,1.9969394 L 25.152494,29.031921 4.9967204,17.330844 c -1.119598,-0.64724 -2.507425,-0.584531 -3.56554,0.161251 -1.05812495,0.745689 -1.59749295,2.041067 -1.38573195,3.328081 L 6.3075994,58.838105 c -4.700161,2.547336 -7.10108595,7.990143 -5.83661295,13.231311 1.26447395,5.241196 5.87386695,8.952383 11.20535955,9.021833 h 56.776836 c 5.340697,-0.05492 9.965352,-3.765725 11.235255,-9.014967 1.269859,-5.249279 -1.138026,-10.701861 -5.849815,-13.246636 z M 25.035605,36.711412 c 0.818306,0.471619 1.795362,0.571758 2.690501,0.275561 0.895147,-0.296 1.625178,-0.960678 2.010288,-1.830259 L 40.06475,11.686996 50.376438,35.156747 c 0.384624,0.87434 1.117635,1.542688 2.016992,1.839041 0.899374,0.29632 1.880745,0.192863 2.700484,-0.284507 l 17.25849,-9.98606 -5.059805,30.710059 H 12.836938 L 7.7771154,26.725221 Z M 68.453182,74.332274 H 11.676346 c -2.7667936,0 -5.0097126,-2.269499 -5.0097126,-5.069054 0,-2.79959 2.242919,-5.069057 5.0097126,-5.069057 h 56.776836 c 2.766785,0 5.009721,2.269467 5.009721,5.069057 0,2.799555 -2.242936,5.069054 -5.009721,5.069054 z"
     id="Shape"
     style="fill:#ffffff;stroke-width:0.83988357" />
  <text
     xml:space="preserve"
     style="font-style:normal;font-weight:normal;font-size:40px;line-height:1.25;font-family:sans-serif;letter-spacing:0px;word-spacing:0px;fill:#ffffff;fill-opacity:1;stroke:none;"
     x="103.54353"
     y="57.331158"
     id="text2091"><tspan
       sodipodi:role="line"
       id="tspan2089"
       x="103.54353"
       y="57.331158">Data Analysis Platform</tspan></text>
</svg>
